<svg xmlns="http://www.w3.org/2000/svg" width="64" height="64" viewBox="0 0 64 64">
  <rect width="64" height="64" rx="12" fill="#0a0e14"/>
  <defs>
    <mask id="owl-cut">
      <rect width="64" height="64" fill="#fff"/>
      <circle cx="24" cy="28" r="8" fill="#000"/>
      <circle cx="40" cy="28" r="8" fill="#000"/>
      <path d="M28.5 32.5 L35.5 32.5 Q34.8 35.8 32 38.5 Q29.2 35.8 28.5 32.5 Z" fill="#000"/>
    </mask>
  </defs>
  <g fill="#2dd4a8" mask="url(#owl-cut)">
    <path d="M15 15 L21 3 L26 13 Z"/>
    <path d="M49 15 L43 3 L38 13 Z"/>
    <path d="M32 8 C19 8 11 18 11 30 C11 46 20 58 32 58 C44 58 53 46 53 30 C53 18 45 8 32 8 Z"/>
  </g>
  <circle cx="25.5" cy="31" r="3.2" fill="#2dd4a8"/>
  <circle cx="38.5" cy="31" r="3.2" fill="#2dd4a8"/>
  <g stroke="#2dd4a8" stroke-width="1.8" stroke-linecap="round" fill="none">
    <path d="M27 56.5 L27 60.5 M27 60.5 L24.5 62.5 M27 60.5 L27 62.5 M27 60.5 L29.5 62.5"/>
    <path d="M37 56.5 L37 60.5 M37 60.5 L34.5 62.5 M37 60.5 L37 62.5 M37 60.5 L39.5 62.5"/>
  </g>
</svg>
